Coordinates
version=1
nRows=26
nColumns=38
inDegrees=no

Units are S.I. units (second, meters, Newtons, ...)
If the header above contains a line with 'inDegrees', this indicates whether rotational values are in degrees (yes) or radians (no).

endheader
time	pelvis_tilt	pelvis_list	pelvis_rotation	pelvis_tx	pelvis_ty	pelvis_tz	hip_flexion_r	hip_adduction_r	hip_rotation_r	knee_angle_r	ankle_angle_r	subtalar_angle_r	mtp_angle_r	hip_flexion_l	hip_adduction_l	hip_rotation_l	knee_angle_l	ankle_angle_l	subtalar_angle_l	mtp_angle_l	lumbar_extension	lumbar_bending	lumbar_rotation	arm_flex_r	arm_add_r	arm_rot_r	elbow_flex_r	pro_sup_r	wrist_flex_r	wrist_dev_r	arm_flex_l	arm_add_l	arm_rot_l	elbow_flex_l	pro_sup_l	wrist_flex_l	wrist_dev_l
0	0.0879299	0.0311993	-0.0534947	-0.570414	0.996416	-0.260763	0.209072	-0.171115	-0.10285	1.25984	0.208808	0	0	0.0739169	0.107941	0.0782182	0.327971	0.334587	0	0	-0.211538	-0.0364449	-0.0110662	0.0244203	-0.176019	-0.13382	0.720488	1.1586	0	0	-0.0143929	-0.248724	0.035145	0.811251	0.860876	0	0
0.01	0.0857892	0.0253462	-0.0472668	-0.558672	0.998231	-0.261558	0.235174	-0.163397	-0.105924	1.24721	0.212899	0	0	0.0521186	0.102024	0.0860651	0.308542	0.33452	0	0	-0.210266	-0.0276884	-0.0178667	0.01814	-0.177856	-0.141448	0.721707	1.16053	0	0	0.000233119	-0.249171	0.0428847	0.821561	0.852557	0	0
0.02	0.0844742	0.0182493	-0.041927	-0.547157	0.999893	-0.262246	0.259011	-0.154264	-0.109697	1.22928	0.220729	0	0	0.0312803	0.0942894	0.0892042	0.292352	0.335387	0	0	-0.210362	-0.0176653	-0.0232067	0.0126325	-0.179966	-0.151052	0.723566	1.15425	0	0	0.0151447	-0.249472	0.0507812	0.832802	0.853078	0	0
0.03	0.0833595	0.0115187	-0.0357772	-0.535568	1.00129	-0.262919	0.281396	-0.145033	-0.113536	1.20737	0.231187	0	0	0.010525	0.0870963	0.0926328	0.276686	0.337258	0	0	-0.210598	-0.00812775	-0.0289753	0.00616408	-0.181736	-0.162612	0.727571	1.13923	0	0	0.0292513	-0.250484	0.060183	0.845526	0.862558	0	0
0.04	0.0819153	0.00546932	-0.0292062	-0.524	1.00236	-0.263604	0.30337	-0.136464	-0.117291	1.18183	0.235171	0	0	-0.00929884	0.0809178	0.0992332	0.261771	0.338358	0	0	-0.210449	0.000590195	-0.0357887	0.000126356	-0.183723	-0.172208	0.730529	1.1413	0	0	0.0421545	-0.251824	0.0674944	0.861671	0.854627	0	0
0.05	0.0806742	-0.000767681	-0.0228137	-0.512426	1.00315	-0.264251	0.322975	-0.127878	-0.122004	1.15128	0.244437	0	0	-0.0288524	0.0743527	0.104329	0.247601	0.342042	0	0	-0.210517	0.00948803	-0.0420529	-0.00539525	-0.185703	-0.183517	0.73429	1.12601	0	0	0.0547971	-0.253085	0.0752257	0.877791	0.864692	0	0
0.06	0.0785811	-0.00598622	-0.0153959	-0.50124	1.0036	-0.264937	0.342119	-0.121327	-0.12867	1.11632	0.247785	0	0	-0.0457811	0.0686924	0.11293	0.235593	0.344393	0	0	-0.210318	0.0172428	-0.0494827	-0.00909506	-0.187206	-0.193262	0.734619	1.12796	0	0	0.0675585	-0.25478	0.0817477	0.895802	0.856876	0	0
0.07	0.0779997	-0.0114245	-0.00805102	-0.489892	1.00397	-0.265491	0.356534	-0.114325	-0.136302	1.0751	0.251091	0	0	-0.0646128	0.0622207	0.12052	0.223171	0.348317	0	0	-0.211527	0.0250156	-0.0567483	-0.0126949	-0.18852	-0.203484	0.73546	1.11912	0	0	0.0795672	-0.256705	0.0886247	0.914219	0.858077	0	0
0.08	0.0779446	-0.0155776	-0.00275493	-0.478403	1.00413	-0.265855	0.368596	-0.107296	-0.140817	1.02971	0.254088	0	0	-0.0848353	0.0569741	0.122771	0.209452	0.351583	0	0	-0.213119	0.0309989	-0.0623932	-0.016322	-0.189938	-0.212882	0.735811	1.11762	0	0	0.0907132	-0.2586	0.0950873	0.933079	0.867525	0	0
0.09	0.0777871	-0.0186878	0.00428309	-0.466876	1.00397	-0.26626	0.378876	-0.101754	-0.146655	0.981184	0.254816	0	0	-0.105704	0.052463	0.134134	0.19431	0.354841	0	0	-0.214511	0.0358915	-0.0695366	-0.0200802	-0.190639	-0.223242	0.737406	1.10059	0	0	0.101689	-0.261408	0.102201	0.95404	0.860765	0	0
0.1	0.0778823	-0.020966	0.0116798	-0.455307	1.00352	-0.266606	0.387224	-0.0983895	-0.155767	0.929394	0.255658	0	0	-0.125818	0.048571	0.141029	0.181298	0.357659	0	0	-0.216143	0.039718	-0.0774008	-0.0229316	-0.19101	-0.232315	0.737421	1.09113	0	0	0.112143	-0.264573	0.109335	0.974788	0.862334	0	0
0.11	0.078347	-0.022871	0.0181629	-0.44362	1.00281	-0.266796	0.392955	-0.0947664	-0.164991	0.87285	0.256575	0	0	-0.146283	0.0448825	0.144723	0.168735	0.362614	0	0	-0.218088	0.0428879	-0.0846971	-0.0255729	-0.191154	-0.241605	0.73836	1.06908	0	0	0.121786	-0.267926	0.117019	0.995214	0.875189	0	0
0.12	0.0780847	-0.0237579	0.0248331	-0.431682	1.00176	-0.267017	0.397129	-0.0919282	-0.174893	0.814006	0.257572	0	0	-0.166666	0.0422061	0.153022	0.155212	0.366212	0	0	-0.218646	0.045002	-0.0926735	-0.0285213	-0.191262	-0.248917	0.73693	1.07154	0	0	0.130322	-0.271071	0.123315	1.01636	0.865642	0	0
0.13	0.0769998	-0.0240518	0.0308503	-0.419758	1.0004	-0.267153	0.400389	-0.0890464	-0.184022	0.750665	0.258327	0	0	-0.185654	0.0400807	0.158172	0.142518	0.371062	0	0	-0.218582	0.0462738	-0.0996718	-0.0312178	-0.191082	-0.257089	0.735521	1.06129	0	0	0.139163	-0.273849	0.129886	1.03618	0.867146	0	0
0.14	0.0754258	-0.0239366	0.0357153	-0.407892	0.998725	-0.267149	0.402802	-0.0859508	-0.194597	0.684713	0.256298	0	0	-0.202951	0.0384382	0.159065	0.131993	0.377024	0	0	-0.218271	0.0469081	-0.105624	-0.0332334	-0.190627	-0.265491	0.735283	1.03691	0	0	0.148239	-0.276323	0.136178	1.05584	0.879975	0	0
0.15	0.0736467	-0.0234273	0.0414495	-0.39572	0.996787	-0.267201	0.40244	-0.0838654	-0.209369	0.6149	0.253609	0	0	-0.220371	0.0369322	0.16557	0.121569	0.380848	0	0	-0.21691	0.0472119	-0.112905	-0.0362437	-0.190085	-0.271934	0.734184	1.03958	0	0	0.15659	-0.278093	0.139779	1.07632	0.870737	0	0
0.16	0.0733152	-0.0255546	0.0475384	-0.382987	0.99482	-0.267135	0.397295	-0.0789005	-0.232268	0.541555	0.249841	0	0	-0.239119	0.0317971	0.164339	0.113058	0.388454	0	0	-0.215904	0.0504912	-0.119797	-0.0400038	-0.189624	-0.27959	0.734519	1.01294	0	0	0.163177	-0.279045	0.144523	1.09281	0.88345	0	0
0.17	0.0713703	-0.0258385	0.0517348	-0.370349	0.992493	-0.266924	0.394313	-0.0752955	-0.256108	0.469782	0.248184	0	0	-0.255949	0.0290668	0.167796	0.104897	0.393286	0	0	-0.213452	0.0514302	-0.125598	-0.0426483	-0.189135	-0.284594	0.731546	1.01593	0	0	0.168867	-0.280106	0.148347	1.10925	0.874137	0	0
0.18	0.0690982	-0.0257343	0.0543173	-0.357784	0.989959	-0.266514	0.391658	-0.0706332	-0.277491	0.397711	0.245931	0	0	-0.271057	0.0270931	0.164073	0.0978636	0.400159	0	0	-0.210872	0.0515538	-0.129489	-0.0456447	-0.188488	-0.29093	0.730499	1.00375	0	0	0.175234	-0.280771	0.153311	1.12378	0.875756	0	0
0.19	0.0672561	-0.0268175	0.0557191	-0.34502	0.987307	-0.2659	0.387342	-0.0629225	-0.287797	0.3303	0.247641	0	0	-0.28566	0.0238895	0.152718	0.0927118	0.409046	0	0	-0.208085	0.0526349	-0.131104	-0.0500343	-0.188034	-0.298322	0.731846	0.97442	0	0	0.182086	-0.28007	0.157917	1.13577	0.887678	0	0
0.2	0.064664	-0.0273825	0.0578976	-0.332107	0.984514	-0.265319	0.38292	-0.0556654	-0.29293	0.264543	0.251643	0	0	-0.299622	0.0210106	0.152038	0.0872871	0.413891	0	0	-0.204287	0.0533078	-0.13431	-0.0546211	-0.18744	-0.302822	0.73171	0.977954	0	0	0.187329	-0.279338	0.16044	1.14785	0.878352	0	0
0.21	0.0619025	-0.0279297	0.0598624	-0.319117	0.981679	-0.264665	0.377162	-0.0472787	-0.283036	0.200022	0.25635	0	0	-0.311673	0.0185015	0.147911	0.0859164	0.421481	0	0	-0.200414	0.0540466	-0.137424	-0.0589535	-0.186605	-0.308007	0.732929	0.96445	0	0	0.192049	-0.278276	0.162979	1.15791	0.878893	0	0
0.22	0.059922	-0.0289471	0.0612863	-0.305955	0.978931	-0.263966	0.366871	-0.0373045	-0.250859	0.133445	0.259137	0	0	-0.323539	0.0160288	0.135688	0.0869817	0.431644	0	0	-0.197524	0.0555544	-0.139137	-0.0627277	-0.185701	-0.3158	0.734884	0.914679	0	0	0.196673	-0.27644	0.166242	1.16617	0.89143	0	0
0.23	0.0579254	-0.0292908	0.0638684	-0.292749	0.976231	-0.26344	0.356378	-0.0305485	-0.221626	0.0744622	0.262117	0	0	-0.336344	0.0140267	0.136342	0.0853639	0.435033	0	0	-0.194594	0.0568135	-0.141468	-0.066673	-0.184912	-0.320802	0.732904	0.918909	0	0	0.201105	-0.274031	0.16882	1.17377	0.882005	0	0
0.24	0.0566558	-0.0307834	0.0652676	-0.279499	0.973666	-0.262743	0.346089	-0.0231451	-0.181396	0.027459	0.269215	0	0	-0.34572	0.0109901	0.122151	0.0916604	0.444445	0	0	-0.192284	0.05936	-0.14195	-0.0701611	-0.184051	-0.329325	0.733989	0.874174	0	0	0.205307	-0.270563	0.171047	1.17812	0.89277	0	0
0.25	0.0542849	-0.0317112	0.0667009	-0.266366	0.971144	-0.262012	0.347118	-0.0183997	-0.168186	0.0118866	0.280238	0	0	-0.352469	0.00815132	0.121477	0.100411	0.447903	0	0	-0.189231	0.0614203	-0.143217	-0.0731968	-0.182982	-0.333939	0.732574	0.87776	0	0	0.208191	-0.266897	0.170661	1.18274	0.885331	0	0
